<svg width="65" height="66" viewBox="0 0 65 66" fill="none" xmlns="http://www.w3.org/2000/svg">
<g clip-path="url(#clip0_215_11170)">
<path d="M48.5146 28.9995H34.0271V34.2499C34.0271 37.9721 30.9485 41.0005 27.1646 41.0005C23.3807 41.0005 20.3021 37.9721 20.3021 34.2499V22.849L14.1164 26.5055C12.2768 27.5837 11.1522 29.5433 11.1522 31.6435V36.0782L3.52717 40.4098C2.06889 41.2349 1.56374 43.0726 2.41202 44.5071L10.037 57.5019C10.8758 58.9364 12.7439 59.4239 14.2022 58.5989L24.0574 53.0015H37.0771C40.4416 53.0015 43.1771 50.3107 43.1771 47.001H44.7021C46.3891 47.001 47.7521 45.6603 47.7521 44.0008V38.0003H48.5146C49.7822 38.0003 50.8021 36.997 50.8021 35.7501V31.2497C50.8021 30.0027 49.7822 28.9995 48.5146 28.9995ZM62.5922 25.4929L54.9672 12.4981C54.1285 11.0636 52.2604 10.5761 50.8021 11.4011L40.9468 16.9985H31.2059C30.0621 16.9985 28.947 17.3173 27.9748 17.9079L24.7818 19.8675C23.8859 20.4113 23.3521 21.377 23.3521 22.4083V34.2499C23.3521 36.322 25.0582 38.0003 27.1646 38.0003C29.271 38.0003 30.9771 36.322 30.9771 34.2499V25.9992H48.5146C51.4597 25.9992 53.8521 28.3526 53.8521 31.2497V33.9218L61.4771 29.5902C62.9353 28.7557 63.431 26.9274 62.5922 25.4929V25.4929Z" fill="white"/>
</g>
<defs>
<clipPath id="clip0_215_11170">
<rect width="64.9749" height="65.2772" fill="white"/>
</clipPath>
</defs>
</svg>
