<svg width="65" height="66" viewBox="0 0 65 66" fill="none" xmlns="http://www.w3.org/2000/svg">
<g clip-path="url(#clip0_215_11169)">
<path d="M44.6703 24.4789C44.6703 27.725 43.3867 30.8382 41.102 33.1335C38.8173 35.4289 35.7186 36.7184 32.4875 36.7184C29.2564 36.7184 26.1577 35.4289 23.8729 33.1335C21.5882 30.8382 20.3047 27.725 20.3047 24.4789C20.3047 21.2328 21.5882 18.1196 23.8729 15.8243C26.1577 13.529 29.2564 12.2394 32.4875 12.2394C35.7186 12.2394 38.8173 13.529 41.102 15.8243C43.3867 18.1196 44.6703 21.2328 44.6703 24.4789V24.4789Z" fill="white"/>
<path fill-rule="evenodd" clip-rule="evenodd" d="M0 32.6386C0 23.9823 3.42278 15.6805 9.51535 9.55962C15.6079 3.4387 23.8712 0 32.4874 0C41.1037 0 49.367 3.4387 55.4595 9.55962C61.5521 15.6805 64.9749 23.9823 64.9749 32.6386C64.9749 41.2949 61.5521 49.5967 55.4595 55.7176C49.367 61.8385 41.1037 65.2772 32.4874 65.2772C23.8712 65.2772 15.6079 61.8385 9.51535 55.7176C3.42278 49.5967 0 41.2949 0 32.6386V32.6386ZM32.4874 4.07982C27.1342 4.08011 21.8899 5.599 17.3581 8.46167C12.8262 11.3243 9.19104 15.4144 6.87095 20.2612C4.55086 25.108 3.64016 30.5144 4.24367 35.8582C4.84717 41.2021 6.94035 46.2661 10.2823 50.4674C13.1655 45.8001 19.5128 40.7982 32.4874 40.7982C45.4621 40.7982 51.8053 45.796 54.6926 50.4674C58.0346 46.2661 60.1277 41.2021 60.7312 35.8582C61.3347 30.5144 60.424 25.108 58.1039 20.2612C55.7839 15.4144 52.1487 11.3243 47.6168 8.46167C43.085 5.599 37.8407 4.08011 32.4874 4.07982V4.07982Z" fill="white"/>
</g>
<defs>
<clipPath id="clip0_215_11169">
<rect width="64.9749" height="65.2772" fill="white"/>
</clipPath>
</defs>
</svg>
